{"title":"Megamind The Button of Doom 2010 BRRip XvidHD 720p-NPW","uid":6210773,"size":427520391,"categoryP":"video","categoryS":"hd___movies","magnet":"?xt=urn:btih:4064c8d4ddd9112f186e0f303a4a559226e3ab5f&amp;dn=Megamind+The+Button+of+Doom+2010+BRRip+XvidHD+720p-NPW&amp;tr=udp%3A%2F%2Ftracker.openbittorrent.com%3A80&amp;tr=udp%3A%2F%2Fopen.demonii.com%3A1337&amp;tr=udp%3A%2F%2Ftracker.coppersurfer.tk%3A6969&amp;tr=udp%3A%2F%2Fexodus.desync.com%3A6969","seeders":0,"leechers":1,"uploader":"sceneline","files":6,"time":1298975866,"description":"-\nhttp:// www . torrentkit. com        \nhttp:// www .torrentkit. com       the fast  and The Hottest Private Tracker on the net\n\nPlease Seed back to make the speed Faster!!!\n\nand don't forget to visit      ...... www .torrentkit .com..........\n- _        _______          \n( (    /|(  ____ )|\\     /|\n|  \\  ( || (    )|| )   ( |\n|   \\ | || (____)|| | _ | |\n| (\\ \\) ||  _____)| |( )| |\n| | \\   || (      | || || |\n| )  \\  || )      | () () |\n|/    )_)|/       (_______)\n\n                  _________ ______            ______            \n(\\     /||\\     /|\\__   __/(  __  \\ |\\     /|(  __  \\ \n( \\   / )| )   ( |   ) (   | (  \\  )| )   ( || (  \\  )\n \\ (_) / | |   | |   | |   | |   ) || (___) || |   ) |\n  ) _ (  ( (   ) )   | |   | |   | ||  ___  || |   | |\n / ( ) \\  \\ \\_/ /    | |   | |   ) || (   ) || |   ) |\n( /   \\ )  \\   /  ___) (___| (__/  )| )   ( || (__/  )                  \n|/     \\|   \\_/   \\_______/(______/ |/     \\|(______/                                                      \n ______   _______  _______  _______ \n/ ___  \\ / ___   )(  __   )(  ____ )\n\\/   )  )\\/   )  || (  )  || (    )|\n    /  /     /   )| | /   || (____)|\n   /  /    _/   / | (/ /) ||  _____)\n  /  /    /   _/  |   / | || (      \n /  /    (   (__/\\|  (__) || )      \n \\_/     \\_______/(_______)|/       \n                       \n           \n-==Our releases are in HD resolution and 5.1 sound whenever possible from the source. They work on computers, Xbox 360, PS3, WDHD TV, media servers, some blu ray players and some upscaling dvd players.==-\n\n* We believe it is better to test quality with a sample, which we always provide. It's a much better representation of what the release will look like on your TV / monitor.\n\n* Subtitles are provided as often as possible but sometimes the source doesn't include them. If you desperately want subs, there are plenty of places they can be found. Just ensure the run time is the same. \n\n* The occasional cinavia error on the PS3 does not occur on all PS3's. If it happens to you, don't claim it will happen to everyone. \n\n* If you have problems extracting files, check your files thoroughly before making any comments claiming it's a bad download. Ask someone else to check also. We test our files properly before sharing them with you. \n\n* Yes, our releases ARE 720p. We just don't waste space by encoding the black bars. If you don't understand this, do research on aspect ratio. The source files are the same or proportionate resolution. \n\n* Comments are meant to thank the encoder and discuss the encode, not for unintelligently bashing the movie itself. If you can't say anything useful, move on. Films should be judged on what they are intended to do, not what you want them to do for you. \n\n* To those smart enough to know all of this already, we salute you!\n\n================================================================\n\nSource: Megamind: The Button of Doom 2010 1080p Blu-ray x264-ViSTA\n\nGeneral\nComplete name                    : Megamind The Button of Doom 2010 BRRip XvidHD 720p-NPW.avi\nFormat                           : AVI\nFormat/Info                      : Audio Video Interleave\nFile size                        : 392 MiB\nDuration                         : 15mn 52s\nOverall bit rate                 : 3 453 Kbps\n\nVideo\nID                               : 0\nFormat                           : MPEG-4 Visual\nFormat profile                   : Advanced Simple@L5\nFormat settings, BVOP            : 2\nFormat settings, QPel            : No\nFormat settings, GMC             : No warppoints\nFormat settings, Matrix          : Default (H.263)\nCodec ID                         : XVID\nCodec ID/Hint                    : XviD\nDuration                         : 15mn 52s\nBit rate                         : 2 800 Kbps\nWidth                            : 1 280 pixels\nHeight                           : 712 pixels\nDisplay aspect ratio             : 16:9\nFrame rate                       : 23.976 fps\nColor space                      : YUV\nChroma subsampling               : 4:2:0\nBit depth                        : 8 bits\nScan type                        : Progressive\nCompression mode                 : Lossy\nBits/(Pixel*Frame)               : 0.128\nStream size                      : 318 MiB (81%)\nWriting library                  : XviD 1.2.1 (UTC 2008-12-04)\n\nAudio\nID                               : 1\nFormat                           : AC-3\nFormat/Info                      : Audio Coding 3\nMode extension                   : CM (complete main)\nCodec ID                         : 2000\nDuration                         : 15mn 52s\nBit rate mode                    : Constant\nBit rate                         : 640 Kbps\nChannel(s)                       : 6 channels\nChannel positions                : Front: L C R, Side: L R, LFE\nSampling rate                    : 48.0 KHz\nBit depth                        : 16 bits\nCompression mode                 : Lossy\nStream size                      : 72.7 MiB (19%)\nAlignment                        : Aligned on interleaves\nInterleave, duration             : 42 ms (1.00 video frame) &lt;a href=&quot;\nhttp://www.imdb.com/title/tt1001526/&quot; rel=&quot;nofollow&quot; target=&quot;_NEW&quot;&gt;\nhttp://www.imdb.com/title/tt1001526/&lt;/a&gt;","torrent":{"xt":"urn:btih:4064c8d4ddd9112f186e0f303a4a559226e3ab5f","amp;dn":"Megamind+The+Button+of+Doom+2010+BRRip+XvidHD+720p-NPW","amp;tr":["udp%3A%2F%2Ftracker.openbittorrent.com%3A80","udp%3A%2F%2Fopen.demonii.com%3A1337","udp%3A%2F%2Ftracker.coppersurfer.tk%3A6969","udp%3A%2F%2Fexodus.desync.com%3A6969"],"infoHash":"4064c8d4ddd9112f186e0f303a4a559226e3ab5f","infoHashBuffer":{"type":"Buffer","data":[64,100,200,212,221,217,17,47,24,110,15,48,58,74,85,146,38,227,171,95]},"announce":[],"urlList":[]}}